<svg width="94px" height="143px" viewBox="0 0 94 143" version="1.1" xmlns="http://www.w3.org/2000/svg" xmlns:xlink="http://www.w3.org/1999/xlink">
    <g stroke="none" stroke-width="1" fill="none" fill-rule="evenodd">
        <g transform="translate(2.000000, 2.000000)" stroke="#0E0F14" stroke-width="4">
            <path d="M13.3637109,73.5799521 C5.11253526,65.7851045 0,54.963065 0,43 C0,19.2517558 20.1471863,0 45,0 C69.8528137,0 90,19.2517558 90,43 C90,53.9479827 85.7182669,63.9403597 78.6676614,71.5315089 C68.957202,77.6399236 62,94.1237638 62,113.5 C62,114.001987 62.0046696,114.502033 62.0139358,115.000008 L29.9939491,115 C29.7621276,95.8614799 22.8922545,79.6671687 13.3637109,73.5799521 Z"></path>
            <rect x="29" y="119" width="33" height="8" rx="4"></rect>
            <rect x="29" y="131" width="33" height="8" rx="4"></rect>
        </g>
    </g>
</svg>